<svg width="282" height="92" viewBox="0 0 282 92" fill="none" xmlns="http://www.w3.org/2000/svg">
<path d="M40.7683 0H53.8145V72.8786H40.7683V67.3541C38.2166 69.7842 35.6648 71.5394 33.1131 72.6194C30.4691 73.7071 27.6355 74.2524 24.7789 74.2233C18.0638 74.2233 12.2558 71.6048 7.3551 66.3678C2.45439 61.1308 0.00268606 54.6213 0 46.8394C0 38.7672 2.37112 32.1518 7.11336 26.9931C11.8556 21.8344 17.6159 19.2564 24.3941 19.2591C27.4123 19.2391 30.4023 19.8443 33.1775 21.0371C35.9133 22.2212 38.4436 23.9986 40.7683 26.3693V0ZM27.0513 31.3674C23.0222 31.3674 19.672 32.8012 17.0007 35.6688C14.3295 38.5364 12.9958 42.2113 12.9999 46.6936C12.9999 51.2097 14.357 54.9224 17.0713 57.8319C19.7855 60.7413 23.1283 62.1987 27.0997 62.2041C31.1946 62.2041 34.5924 60.771 37.2933 57.9048C39.9941 55.0385 41.3432 51.2826 41.3405 46.6369C41.3405 42.0898 39.9914 38.4067 37.2933 35.5878C34.5951 32.7688 31.1811 31.362 27.0513 31.3674Z" fill="white"/>
<path d="M115.58 0H128.627V19.2611H136.371V30.3588H128.627V72.8867H115.58V30.3588H108.888V19.2611H115.58V0Z" fill="white"/>
<path d="M107.542 33.0097C105.142 28.8025 101.648 25.3309 97.4354 22.9671C93.2295 20.5297 88.4583 19.2514 83.6035 19.2611C76.8186 19.2611 70.8125 21.6312 65.5854 26.3713C59.6278 31.8176 56.6489 38.6241 56.6489 46.7908C56.6489 51.292 57.5709 55.3929 59.4149 59.0935L64.7796 58.8424L75.501 29.1114C75.6507 28.6969 75.9271 28.3406 76.2906 28.0938C76.6541 27.8469 77.0859 27.722 77.5243 27.7371C77.9627 27.7522 78.3851 27.9064 78.731 28.1776C79.0768 28.4489 79.3284 28.8232 79.4496 29.247L80.8839 34.2957L83.2006 31.7218C83.4717 31.421 83.824 31.2061 84.2146 31.1035C84.6051 31.0008 85.017 31.0148 85.3998 31.1437C85.7826 31.2726 86.1197 31.5108 86.3699 31.8293C86.6201 32.1478 86.7726 32.5326 86.8087 32.9368L87.2962 38.587C88.7069 38.9551 89.9851 39.717 90.9832 40.7846C91.9814 41.8521 92.6587 43.1817 92.9369 44.6199L101.984 48.2874C102.25 48.396 102.491 48.5586 102.691 48.7651C102.891 48.9716 103.047 49.2175 103.148 49.4874C103.249 49.7573 103.294 50.0452 103.279 50.3333C103.264 50.6213 103.19 50.9031 103.062 51.1611C100.179 56.9226 94.611 60.501 88.5291 60.501C87.6516 60.5001 86.7756 60.4263 85.9102 60.2803L82.9105 74.201C83.1603 74.201 83.4081 74.2173 83.66 74.2173C88.7272 74.2173 93.3607 73.0082 97.5603 70.5902C101.73 68.2082 105.175 64.7285 107.524 60.5253C109.939 56.3191 111.201 51.544 111.181 46.6875C111.201 41.884 109.945 37.1621 107.542 33.0097Z" fill="white"/>
<path d="M251.258 19.2651V0H238.212V19.2651H210.738C203.026 19.2651 196.614 21.8978 191.501 27.1632C191.209 27.4649 190.927 27.7707 190.651 28.0826C190.348 27.714 190.034 27.3495 189.708 26.9951C184.959 21.8391 179.192 19.2611 172.407 19.2611C169.385 19.2409 166.392 19.8462 163.613 21.0392C160.874 22.2232 158.322 24.0006 155.958 26.3713V19.2611H143.015V92H155.966V67.3541C158.518 69.7842 161.083 71.5394 163.662 72.6194C165.197 73.2554 166.803 73.7035 168.444 73.954C168.293 73.717 168.14 73.4821 167.969 73.231C163.472 66.6858 160.692 63.0831 159.981 49.5369C153.307 43.5668 157.614 40.7843 161.365 29.2329C162.235 31.6765 162.93 33.4809 163.448 34.6461C166.093 34.316 171.964 34.316 174.611 34.6461C175.131 33.485 175.825 31.6806 176.694 29.2329C180.439 40.7539 184.74 43.6114 178.134 49.547C179.343 51.3231 180.731 53.4981 182.292 56.2037C185.939 55.9714 189.556 58.1248 193.145 62.6638C195.256 65.2501 196.94 68.161 198.133 71.2849C202.003 73.2398 206.444 74.2179 211.455 74.2193C216.71 74.2193 221.25 73.2823 225.075 71.4084C228.9 69.5345 232.182 66.6439 234.92 62.7368L223.929 57.5484C220.424 60.9776 216.233 62.6908 211.358 62.6881C207.281 62.6881 203.928 61.5912 201.299 59.3973C198.811 57.3222 197.233 54.5619 196.565 51.1165C196.589 50.914 196.606 50.7277 196.628 50.5333H238.212V72.8786H251.258V30.3507H259V19.2651H251.258ZM197.023 40.2091C198.491 36.9689 200.087 34.7102 201.811 33.433C204.555 31.3836 207.746 30.3588 211.384 30.3588C214.742 30.3588 217.686 31.2715 220.218 33.0968C222.675 34.8131 224.475 37.3229 225.317 40.2091H197.023ZM233.367 30.3588H238.214V44.0771C237.685 38.7875 236.069 34.2147 233.365 30.3588H233.367Z" fill="white"/>
<path d="M175.318 39.316C174.169 39.3545 172.743 40.1625 171.758 41.8454H173.841C177.915 41.5396 177.338 39.2532 175.318 39.316Z" fill="white"/>
<path d="M164.2 41.8454H166.283C165.297 40.1625 163.865 39.3545 162.723 39.316C160.704 39.2532 160.128 41.5396 164.2 41.8454Z" fill="white"/>
<circle cx="272.5" cy="63.5" r="9.5" fill="white"/>
</svg>
